<mxfile host="65bd71144e">
    <diagram id="2XZU8PzcF17hlvrBxwnS" name="Page-1">
        <mxGraphModel dx="-985" dy="-2834" grid="1" gridSize="10" guides="1" tooltips="1" connect="1" arrows="1" fold="1" page="1" pageScale="1" pageWidth="850" pageHeight="1100" math="0" shadow="0">
            <root>
                <mxCell id="0"/>
                <mxCell id="1" parent="0"/>
                <mxCell id="2" value="Account" style="swimlane;whiteSpace=wrap;html=1;shadow=0;dashed=0;strokeWidth=1;align=center;verticalAlign=top;fontFamily=Helvetica;fontSize=12;fontColor=#FFFFFF;fillColor=#660000;movable=1;resizable=1;rotatable=1;deletable=1;editable=1;locked=0;connectable=1;strokeColor=#666666;swimlaneFillColor=#FFFFFF;" vertex="1" parent="1">
                    <mxGeometry x="1730" y="3660" width="420" height="320" as="geometry"/>
                </mxCell>
                <mxCell id="3" value="Signed in as user@domain.com" style="rounded=0;whiteSpace=wrap;html=1;shadow=0;dashed=0;strokeWidth=1;align=left;verticalAlign=top;fontFamily=Helvetica;fontSize=12;fontColor=#4D4D4D;fillColor=none;spacingLeft=5;strokeColor=none;spacing=0;spacingTop=-2;" vertex="1" parent="2">
                    <mxGeometry x="10" y="40" width="190" height="15" as="geometry"/>
                </mxCell>
                <mxCell id="4" value="Personal" style="rounded=0;whiteSpace=wrap;html=1;shadow=0;dashed=0;strokeWidth=1;align=left;verticalAlign=top;fontFamily=Helvetica;fontSize=10;fontColor=#4D4D4D;fillColor=none;spacingLeft=5;strokeColor=none;spacing=0;spacingTop=-2;" vertex="1" parent="2">
                    <mxGeometry x="47.5" y="135.5" width="80" height="15" as="geometry"/>
                </mxCell>
                <mxCell id="5" value="Select an edition" style="text;html=1;align=left;verticalAlign=middle;whiteSpace=wrap;rounded=0;" vertex="1" parent="2">
                    <mxGeometry x="17.5" y="110" width="150" height="30" as="geometry"/>
                </mxCell>
                <mxCell id="6" value="Educator" style="rounded=0;whiteSpace=wrap;html=1;shadow=0;dashed=0;strokeWidth=1;align=left;verticalAlign=top;fontFamily=Helvetica;fontSize=10;fontColor=#4D4D4D;fillColor=none;spacingLeft=5;strokeColor=none;spacing=0;spacingTop=-2;" vertex="1" parent="2">
                    <mxGeometry x="47.5" y="151.5" width="80" height="15" as="geometry"/>
                </mxCell>
                <mxCell id="7" value="Analyst" style="rounded=0;whiteSpace=wrap;html=1;shadow=0;dashed=0;strokeWidth=1;align=left;verticalAlign=top;fontFamily=Helvetica;fontSize=10;fontColor=#4D4D4D;fillColor=none;spacingLeft=5;strokeColor=none;spacing=0;spacingTop=-2;" vertex="1" parent="2">
                    <mxGeometry x="47.5" y="166.5" width="80" height="15" as="geometry"/>
                </mxCell>
                <mxCell id="8" value="Business" style="rounded=0;whiteSpace=wrap;html=1;shadow=0;dashed=0;strokeWidth=1;align=left;verticalAlign=top;fontFamily=Helvetica;fontSize=10;fontColor=#4D4D4D;fillColor=none;spacingLeft=5;strokeColor=none;spacing=0;spacingTop=-2;" vertex="1" parent="2">
                    <mxGeometry x="47.5" y="181.5" width="80" height="15" as="geometry"/>
                </mxCell>
                <mxCell id="9" value="" style="ellipse;whiteSpace=wrap;html=1;aspect=fixed;strokeColor=#660000;" vertex="1" parent="2">
                    <mxGeometry x="37.5" y="155" width="10" height="10" as="geometry"/>
                </mxCell>
                <mxCell id="10" value="" style="ellipse;whiteSpace=wrap;html=1;aspect=fixed;strokeColor=#660000;" vertex="1" parent="2">
                    <mxGeometry x="37.5" y="140" width="10" height="10" as="geometry"/>
                </mxCell>
                <mxCell id="11" value="" style="ellipse;whiteSpace=wrap;html=1;aspect=fixed;strokeColor=#660000;" vertex="1" parent="2">
                    <mxGeometry x="37.5" y="170" width="10" height="10" as="geometry"/>
                </mxCell>
                <mxCell id="12" value="" style="ellipse;whiteSpace=wrap;html=1;aspect=fixed;strokeColor=#660000;" vertex="1" parent="2">
                    <mxGeometry x="37.5" y="185" width="10" height="10" as="geometry"/>
                </mxCell>
                <mxCell id="13" value="" style="ellipse;whiteSpace=wrap;html=1;aspect=fixed;strokeColor=none;fillColor=#660000;" vertex="1" parent="2">
                    <mxGeometry x="39" y="156.5" width="7" height="7" as="geometry"/>
                </mxCell>
                <mxCell id="14" value="" style="shape=image;verticalLabelPosition=bottom;labelBackgroundColor=default;verticalAlign=top;aspect=fixed;imageAspect=0;image=data:image/svg+xml,PHN2ZyB4bWxucz0iaHR0cDovL3d3dy53My5vcmcvMjAwMC9zdmciIHZpZXdCb3g9IjAgMCAzODQgNTEyIj48cGF0aCBkPSJNMzQyLjYgMTUwLjZjMTIuNS0xMi41IDEyLjUtMzIuOCAwLTQ1LjNzLTMyLjgtMTIuNS00NS4zIDBMMTkyIDIxMC43IDg2LjYgMTA1LjRjLTEyLjUtMTIuNS0zMi44LTEyLjUtNDUuMyAwcy0xMi41IDMyLjggMCA0NS4zTDE0Ni43IDI1NiA0MS40IDM2MS40Yy0xMi41IDEyLjUtMTIuNSAzMi44IDAgNDUuM3MzMi44IDEyLjUgNDUuMyAwTDE5MiAzMDEuMyAyOTcuNCA0MDYuNmMxMi41IDEyLjUgMzIuOCAxMi41IDQ1LjMgMHMxMi41LTMyLjggMC00NS4zTDIzNy4zIDI1NiAzNDIuNiAxNTAuNnoiIGZpbGw9IiM2NjAwMDAiLz48L3N2Zz4=;movable=1;resizable=1;rotatable=1;deletable=1;editable=1;locked=0;connectable=1;" vertex="1" parent="2">
                    <mxGeometry x="310" y="280.00000000000045" width="18.75" height="25" as="geometry"/>
                </mxCell>
                <mxCell id="15" value="" style="shape=image;verticalLabelPosition=bottom;labelBackgroundColor=default;verticalAlign=top;aspect=fixed;imageAspect=0;image=data:image/svg+xml,PHN2ZyB4bWxucz0iaHR0cDovL3d3dy53My5vcmcvMjAwMC9zdmciIHZpZXdCb3g9IjAgMCA0NDggNTEyIj48cGF0aCBkPSJNNDM4LjYgMTA1LjRjMTIuNSAxMi41IDEyLjUgMzIuOCAwIDQ1LjNsLTI1NiAyNTZjLTEyLjUgMTIuNS0zMi44IDEyLjUtNDUuMyAwbC0xMjgtMTI4Yy0xMi41LTEyLjUtMTIuNS0zMi44IDAtNDUuM3MzMi44LTEyLjUgNDUuMyAwTDE2MCAzMzguNyAzOTMuNCAxMDUuNGMxMi41LTEyLjUgMzIuOC0xMi41IDQ1LjMgMHoiIGZpbGw9IiM2NjAwMDAiLz48L3N2Zz4=;movable=1;resizable=1;rotatable=1;deletable=1;editable=1;locked=0;connectable=1;" vertex="1" parent="2">
                    <mxGeometry x="340.6199999999999" y="280" width="21.88" height="25" as="geometry"/>
                </mxCell>
                <mxCell id="16" value="10 of 100 GiB&amp;nbsp;&lt;span style=&quot;text-align: right;&quot;&gt;Storage Used&lt;/span&gt;" style="text;html=1;align=left;verticalAlign=middle;whiteSpace=wrap;rounded=0;fontSize=10;" vertex="1" parent="2">
                    <mxGeometry x="163.12" y="147" width="157.5" height="15" as="geometry"/>
                </mxCell>
                <mxCell id="17" value="2 of 100 GiB Bandiwidth Used&lt;span style=&quot;color: rgba(0, 0, 0, 0); font-family: monospace; font-size: 0px; text-wrap: nowrap;&quot;&gt;%3CmxGraphModel%3E%3Croot%3E%3CmxCell%20id%3D%220%22%2F%3E%3CmxCell%20id%3D%221%22%20parent%3D%220%22%2F%3E%3CmxCell%20id%3D%222%22%20value%3D%22%22%20style%3D%22shape%3Dimage%3BverticalLabelPosition%3Dbottom%3BlabelBackgroundColor%3Ddefault%3BverticalAlign%3Dtop%3Baspect%3Dfixed%3BimageAspect%3D0%3Bimage%3Ddata%3Aimage%2Fsvg%2Bxml%2CPHN2ZyB4bWxucz0iaHR0cDovL3d3dy53My5vcmcvMjAwMC9zdmciIHZpZXdCb3g9IjAgMCA1NzYgNTEyIj48cGF0aCBkPSJNMTkyIDY0Qzg2IDY0IDAgMTUwIDAgMjU2Uzg2IDQ0OCAxOTIgNDQ4bDE5MiAwYzEwNiAwIDE5Mi04NiAxOTItMTkycy04Ni0xOTItMTkyLTE5MkwxOTIgNjR6bTE5MiA5NmE5NiA5NiAwIDEgMSAwIDE5MiA5NiA5NiAwIDEgMSAwLTE5MnoiIGZpbGw9IiM2NjAwMDAiLz48L3N2Zz4%3D%3B%22%20vertex%3D%221%22%20parent%3D%221%22%3E%3CmxGeometry%20x%3D%22553.8899999999999%22%20y%3D%223905%22%20width%3D%2216.88%22%20height%3D%2215%22%20as%3D%22geometry%22%2F%3E%3C%2FmxCell%3E%3CmxCell%20id%3D%223%22%20value%3D%22User-defined%20Tags%22%20style%3D%22rounded%3D0%3BwhiteSpace%3Dwrap%3Bhtml%3D1%3Bshadow%3D0%3Bdashed%3D0%3BstrokeWidth%3D1%3Balign%3Dleft%3BverticalAlign%3Dtop%3BfontFamily%3DHelvetica%3BfontSize%3D8%3BfontColor%3D%234D4D4D%3BfillColor%3Dnone%3BspacingLeft%3D5%3BstrokeColor%3Dnone%3B%22%20vertex%3D%221%22%20parent%3D%221%22%3E%3CmxGeometry%20x%3D%22570.9%22%20y%3D%223900%22%20width%3D%22170%22%20height%3D%2230%22%20as%3D%22geometry%22%2F%3E%3C%2FmxCell%3E%3C%2Froot%3E%3C%2FmxGraphModel%3E rt&lt;/span&gt;" style="text;html=1;align=left;verticalAlign=middle;whiteSpace=wrap;rounded=0;fontSize=10;" vertex="1" parent="2">
                    <mxGeometry x="163.12" y="165" width="157.5" height="15" as="geometry"/>
                </mxCell>
                <mxCell id="18" value="15&amp;nbsp;&lt;span style=&quot;text-align: right;&quot;&gt;Days left in billing cycle&lt;/span&gt;" style="text;html=1;align=left;verticalAlign=middle;whiteSpace=wrap;rounded=0;fontSize=10;" vertex="1" parent="2">
                    <mxGeometry x="163.12" y="128" width="177.5" height="15" as="geometry"/>
                </mxCell>
                <mxCell id="19" value="Allow overages&amp;nbsp;&lt;div&gt;($0.10 / GiB will be charged at the end of the billing cycle)&lt;/div&gt;" style="rounded=0;whiteSpace=wrap;html=1;shadow=0;dashed=0;strokeWidth=1;align=left;verticalAlign=top;fontFamily=Helvetica;fontSize=8;fontColor=#4D4D4D;fillColor=none;spacingLeft=5;strokeColor=none;" vertex="1" parent="2">
                    <mxGeometry x="193.01" y="185" width="147.99" height="30" as="geometry"/>
                </mxCell>
                <mxCell id="20" value="" style="endArrow=none;dashed=1;html=1;dashPattern=1 3;strokeWidth=2;rounded=0;" edge="1" parent="2">
                    <mxGeometry width="50" height="50" relative="1" as="geometry">
                        <mxPoint x="137.5" y="100" as="sourcePoint"/>
                        <mxPoint x="247.5" y="100" as="targetPoint"/>
                    </mxGeometry>
                </mxCell>
                <mxCell id="21" value="Share my email address" style="rounded=0;whiteSpace=wrap;html=1;shadow=0;dashed=0;strokeWidth=1;align=left;verticalAlign=top;fontFamily=Helvetica;fontSize=8;fontColor=#4D4D4D;fillColor=none;spacingLeft=5;strokeColor=none;" vertex="1" parent="2">
                    <mxGeometry x="34.51000000000022" y="60" width="151.49" height="17" as="geometry"/>
                </mxCell>
                <mxCell id="22" value="user@domain.com" style="rounded=1;whiteSpace=wrap;html=1;strokeColor=#333333;fontColor=#808080;fontSize=9;align=left;spacingLeft=15;" vertex="1" parent="2">
                    <mxGeometry x="221.5" y="60" width="141" height="17" as="geometry"/>
                </mxCell>
                <mxCell id="23" value="Display Name" style="rounded=0;whiteSpace=wrap;html=1;shadow=0;dashed=0;strokeWidth=1;align=left;verticalAlign=top;fontFamily=Helvetica;fontSize=8;fontColor=#4D4D4D;fillColor=none;spacingLeft=5;strokeColor=none;" vertex="1" parent="2">
                    <mxGeometry x="221.49999999999977" y="38" width="151.49" height="17" as="geometry"/>
                </mxCell>
                <mxCell id="24" value="Alert Threshold" style="rounded=0;whiteSpace=wrap;html=1;shadow=0;dashed=0;strokeWidth=1;align=right;verticalAlign=top;fontFamily=Helvetica;fontSize=8;fontColor=#4D4D4D;fillColor=none;spacingLeft=5;strokeColor=none;spacing=-1;spacingRight=15;" vertex="1" parent="2">
                    <mxGeometry x="214.5" y="220" width="80.49" height="20" as="geometry"/>
                </mxCell>
                <mxCell id="25" value="$50.00" style="rounded=1;whiteSpace=wrap;html=1;strokeColor=#333333;fontColor=#808080;fontSize=9;align=left;spacingLeft=15;" vertex="1" parent="2">
                    <mxGeometry x="291.25" y="220" width="62.5" height="17" as="geometry"/>
                </mxCell>
                <mxCell id="26" value="Limit" style="rounded=0;whiteSpace=wrap;html=1;shadow=0;dashed=0;strokeWidth=1;align=right;verticalAlign=top;fontFamily=Helvetica;fontSize=8;fontColor=#4D4D4D;fillColor=none;spacingLeft=5;strokeColor=none;spacing=-1;spacingRight=15;" vertex="1" parent="2">
                    <mxGeometry x="214.5" y="240" width="80.49" height="20" as="geometry"/>
                </mxCell>
                <mxCell id="27" value="$100.00" style="rounded=1;whiteSpace=wrap;html=1;strokeColor=#333333;fontColor=#808080;fontSize=9;align=left;spacingLeft=15;" vertex="1" parent="2">
                    <mxGeometry x="291.25" y="240" width="62.5" height="17" as="geometry"/>
                </mxCell>
                <mxCell id="28" value="" style="shape=image;verticalLabelPosition=bottom;labelBackgroundColor=default;verticalAlign=top;aspect=fixed;imageAspect=0;image=data:image/png,iVBORw0KGgoAAAANSUhEUgAAAGMAAABJCAYAAAApDJjFAAAAAXNSR0IArs4c6QAAAARnQU1BAACxjwv8YQUAAAAJcEhZcwAAITcAACE3ATNYn3oAAAASdEVYdFNvZnR3YXJlAEdyZWVuc2hvdF5VCAUAAAW4SURBVHhe7Zx/TFZlFMdplS2rVba0pW3ZlrZltdRWWTY3nfMf3fw155wbTSOhibLhQG3RIrDJ2l6TILNRIDFDNO1NGI6iGJAVUsQSCwMXFoKDZSON+uPU993jcu1473Of+4MD936273/c55zn+XJ/nefcN4kixBCZIYjIDEFEZggiMkMQkRmCiMwQRGSGICIzBBGZIYjIDEFEZggiMkMQgZsxePYsfROP0+d799JHublUlpZGu5cto9fmzQtMbyxdSu9t2EAf5uTQp8XF1HLoEPW0t6sMR45AzOior6fKrCx6aeajlHxNklhlTbufPtiyhb6rqaG/Ll1S2QeHb2b8OTRE8bw8ypo+jZ24dKXfNYlKU1Op99QpNSP/8cWMz/69BG1/aAY7ydGmtAm3Jy5nQ4ODanb+4akZrUeO0M7589lJjXZlPzCdPikqUjP1B8/MQKLcJMaa3l67Vs3YezwxA6cxl/hY1YuPPOzLZcu1Ga888TibcBjU3dKiVsEbXJnx/C03s0mGSQM9PWo13GNsxqtPzWGTC5teuGMC/T08rFbFHUZm4O2VSyysemvNGrUy7nBsBsoHXEJh1/7MTLVC5jgyo7+rizZOmsgmEymJvo3H1UqZ4ciM9zdtYpOQrpSbxlPBwoX0TnIyHdi6lcrT06lo1apE0ZD7e1PFFi9WK2WGthk/HT/OJiBZJevXU8vBg2oGPEMDA9RcXk6vL1rEjuFUbs4ObTOKV69mg0tUbMkS+r6uTmWuT2NpKW2f8SA7pq7cnB1aZqCkzAWWKFQD3NDX2enakLajR9VoztAy40B2NhtUmtwacSVu7ifvpqSoUZyhZUbOrJlsUEl6c+VKla13mBqCvRATbM34taODDShJuEf4Qd/p04mF5WLa6avKSjWKPrZm1MZibDBJMrlZ64KXOS6mnUzOVFszvH4W91p4fPWTn9va2Lg6cortEdjh4gJJUVt1tcrUP3AZ5GLb6bfeXjWCHrZmpN52KxtIglDCDwJc/7n4djrT2qpG0MPSjOGLF9kgUoQSR1Csu2Ecm4OVnJ61lmac7+pig0gRak1BkTn1XjYHKzWUlKij9bA0o7OpiQ0iRSj6BUXunCfZHKwUz89XR+thaYabJ4kghOprUKAJgcvBSsd27VJH62FpxoVz59ggUoQyeFBsnnw3m4OVvty/Xx2th6UZgAsiRXgHCgL8U64bdz2bg5XQY+wEWzNMywFBCV3tflNdUMDGttMvJ0+qEfSwNcPkWhmk6goLVab+YboGfzhsdLM1o3DFCjaQFOXMnqUy9QfTF76NE+9UI+hjawa2JLlgklS/Z4/K1ntQ8ONi2gkfATnF1gzUV7hgkoSdOezQeU17bS0bT0dOb97A1gyAsgMXUJJgiJe4eaw3zUXLjI937GCDSlPe3Kc9abX8sbGRHV9XVdu2qZGcoWXGmRMnjAplIyG8nLUePqwydw4+fePGdSLT7nQtM4DpjtdICa1F6PXS5euqKsp/Zi47lhOZNiMAbTPQ+p5xzxQ2AcnCAqNrpLO5mc53dycuY3j+xwsZbrK4pLz82Gz2WBO5+WZD2wxQY/gmGha5OSuAIzPwXzUa2nZGSm6/ZHJkBsCp/dz4G9lkwqymsjK1QuY4NgM079vHJhRW4ZsVLzAyA2DjhEssbKrIyFAr4h5jM0DYPjn+v3YuWKBWwhtcmQF+aGhgEx3rcvvkxOHaDIAfOwnT9+DYbPIDT8wA+MWA3cuXs8mPFeGxHpVcv/DMjMt8UVEx5s4SVB7wwuvV995Xw3MzLnMsFqPM+6aykxstQnEUNTkvfwXBCt/MABf6+hJ71GgcHk0viti/wbYBqtVB4qsZV4K+XXx5ihZ+FOY2T5lMz153LbsYQQrdL2g4wF4/tpiddo57SWBmXI3f+/sTnYsoswQlxMNOnjRG3IyI/4jMEERkhiAiMwQRmSGIyAwxEP0Dc6RIvyZ5RcAAAAAASUVORK5CYII=;" vertex="1" parent="2">
                    <mxGeometry x="168.5" y="190.5" width="19" height="14.01" as="geometry"/>
                </mxCell>
                <mxCell id="29" value="" style="shape=image;verticalLabelPosition=bottom;labelBackgroundColor=default;verticalAlign=top;aspect=fixed;imageAspect=0;image=data:image/png,iVBORw0KGgoAAAANSUhEUgAAAGMAAABJCAYAAAApDJjFAAAAAXNSR0IArs4c6QAAAARnQU1BAACxjwv8YQUAAAAJcEhZcwAAITcAACE3ATNYn3oAAAASdEVYdFNvZnR3YXJlAEdyZWVuc2hvdF5VCAUAAAW4SURBVHhe7Zx/TFZlFMdplS2rVba0pW3ZlrZltdRWWTY3nfMf3fw155wbTSOhibLhQG3RIrDJ2l6TILNRIDFDNO1NGI6iGJAVUsQSCwMXFoKDZSON+uPU993jcu1473Of+4MD936273/c55zn+XJ/nefcN4kixBCZIYjIDEFEZggiMkMQkRmCiMwQRGSGICIzBBGZIYjIDEFEZggiMkMQgZsxePYsfROP0+d799JHublUlpZGu5cto9fmzQtMbyxdSu9t2EAf5uTQp8XF1HLoEPW0t6sMR45AzOior6fKrCx6aeajlHxNklhlTbufPtiyhb6rqaG/Ll1S2QeHb2b8OTRE8bw8ypo+jZ24dKXfNYlKU1Op99QpNSP/8cWMz/69BG1/aAY7ydGmtAm3Jy5nQ4ODanb+4akZrUeO0M7589lJjXZlPzCdPikqUjP1B8/MQKLcJMaa3l67Vs3YezwxA6cxl/hY1YuPPOzLZcu1Ga888TibcBjU3dKiVsEbXJnx/C03s0mGSQM9PWo13GNsxqtPzWGTC5teuGMC/T08rFbFHUZm4O2VSyysemvNGrUy7nBsBsoHXEJh1/7MTLVC5jgyo7+rizZOmsgmEymJvo3H1UqZ4ciM9zdtYpOQrpSbxlPBwoX0TnIyHdi6lcrT06lo1apE0ZD7e1PFFi9WK2WGthk/HT/OJiBZJevXU8vBg2oGPEMDA9RcXk6vL1rEjuFUbs4ObTOKV69mg0tUbMkS+r6uTmWuT2NpKW2f8SA7pq7cnB1aZqCkzAWWKFQD3NDX2enakLajR9VoztAy40B2NhtUmtwacSVu7ifvpqSoUZyhZUbOrJlsUEl6c+VKla13mBqCvRATbM34taODDShJuEf4Qd/p04mF5WLa6avKSjWKPrZm1MZibDBJMrlZ64KXOS6mnUzOVFszvH4W91p4fPWTn9va2Lg6cortEdjh4gJJUVt1tcrUP3AZ5GLb6bfeXjWCHrZmpN52KxtIglDCDwJc/7n4djrT2qpG0MPSjOGLF9kgUoQSR1Csu2Ecm4OVnJ61lmac7+pig0gRak1BkTn1XjYHKzWUlKij9bA0o7OpiQ0iRSj6BUXunCfZHKwUz89XR+thaYabJ4kghOprUKAJgcvBSsd27VJH62FpxoVz59ggUoQyeFBsnnw3m4OVvty/Xx2th6UZgAsiRXgHCgL8U64bdz2bg5XQY+wEWzNMywFBCV3tflNdUMDGttMvJ0+qEfSwNcPkWhmk6goLVab+YboGfzhsdLM1o3DFCjaQFOXMnqUy9QfTF76NE+9UI+hjawa2JLlgklS/Z4/K1ntQ8ONi2gkfATnF1gzUV7hgkoSdOezQeU17bS0bT0dOb97A1gyAsgMXUJJgiJe4eaw3zUXLjI937GCDSlPe3Kc9abX8sbGRHV9XVdu2qZGcoWXGmRMnjAplIyG8nLUePqwydw4+fePGdSLT7nQtM4DpjtdICa1F6PXS5euqKsp/Zi47lhOZNiMAbTPQ+p5xzxQ2AcnCAqNrpLO5mc53dycuY3j+xwsZbrK4pLz82Gz2WBO5+WZD2wxQY/gmGha5OSuAIzPwXzUa2nZGSm6/ZHJkBsCp/dz4G9lkwqymsjK1QuY4NgM079vHJhRW4ZsVLzAyA2DjhEssbKrIyFAr4h5jM0DYPjn+v3YuWKBWwhtcmQF+aGhgEx3rcvvkxOHaDIAfOwnT9+DYbPIDT8wA+MWA3cuXs8mPFeGxHpVcv/DMjMt8UVEx5s4SVB7wwuvV995Xw3MzLnMsFqPM+6aykxstQnEUNTkvfwXBCt/MABf6+hJ71GgcHk0viti/wbYBqtVB4qsZV4K+XXx5ihZ+FOY2T5lMz153LbsYQQrdL2g4wF4/tpiddo57SWBmXI3f+/sTnYsoswQlxMNOnjRG3IyI/4jMEERkhiAiMwQRmSGIyAwxEP0Dc6RIvyZ5RcAAAAAASUVORK5CYII=;" vertex="1" parent="2">
                    <mxGeometry x="20" y="62.98999999999978" width="19" height="14.01" as="geometry"/>
                </mxCell>
                <mxCell id="30" value="Modify Billing" style="rounded=1;fillColor=#660000;align=center;strokeColor=none;html=1;whiteSpace=wrap;fontColor=#ffffff;fontSize=7;sketch=0;" vertex="1" parent="2">
                    <mxGeometry x="328.75" y="171.5" width="80" height="23.5" as="geometry"/>
                </mxCell>
                <mxCell id="31" value="&lt;div style=&quot;text-align: right;&quot;&gt;&lt;span style=&quot;background-color: initial;&quot;&gt;2 Structures&lt;/span&gt;&lt;/div&gt;" style="text;html=1;align=left;verticalAlign=middle;whiteSpace=wrap;rounded=0;fontSize=10;" vertex="1" parent="2">
                    <mxGeometry x="163.5" y="110" width="177.5" height="15" as="geometry"/>
                </mxCell>
                <mxCell id="32" value="Manage API Keys" style="rounded=1;fillColor=#660000;align=center;strokeColor=none;html=1;whiteSpace=wrap;fontColor=#ffffff;fontSize=7;sketch=0;" vertex="1" parent="2">
                    <mxGeometry x="17.5" y="281.5" width="80" height="23.5" as="geometry"/>
                </mxCell>
                <mxCell id="33" value="" style="rounded=0;whiteSpace=wrap;html=1;fillStyle=cross-hatch;fillColor=#4D4D4D;" vertex="1" parent="2">
                    <mxGeometry x="7.5" y="30" width="402.5" height="245" as="geometry"/>
                </mxCell>
                <mxCell id="93" value="Manage API Keys" style="swimlane;whiteSpace=wrap;html=1;shadow=0;dashed=0;strokeWidth=1;align=center;verticalAlign=top;fontFamily=Helvetica;fontSize=12;fontColor=#FFFFFF;fillColor=#660000;movable=1;resizable=1;rotatable=1;deletable=1;editable=1;locked=0;connectable=1;strokeColor=#666666;swimlaneFillColor=#FFFFFF;startSize=23;" vertex="1" parent="1">
                    <mxGeometry x="1730" y="4020" width="690" height="230" as="geometry"/>
                </mxCell>
                <mxCell id="94" value="" style="shape=image;verticalLabelPosition=bottom;labelBackgroundColor=default;verticalAlign=top;aspect=fixed;imageAspect=0;image=data:image/svg+xml,PHN2ZyB4bWxucz0iaHR0cDovL3d3dy53My5vcmcvMjAwMC9zdmciIHZpZXdCb3g9IjAgMCAzODQgNTEyIj48cGF0aCBkPSJNMzQyLjYgMTUwLjZjMTIuNS0xMi41IDEyLjUtMzIuOCAwLTQ1LjNzLTMyLjgtMTIuNS00NS4zIDBMMTkyIDIxMC43IDg2LjYgMTA1LjRjLTEyLjUtMTIuNS0zMi44LTEyLjUtNDUuMyAwcy0xMi41IDMyLjggMCA0NS4zTDE0Ni43IDI1NiA0MS40IDM2MS40Yy0xMi41IDEyLjUtMTIuNSAzMi44IDAgNDUuM3MzMi44IDEyLjUgNDUuMyAwTDE5MiAzMDEuMyAyOTcuNCA0MDYuNmMxMi41IDEyLjUgMzIuOCAxMi41IDQ1LjMgMHMxMi41LTMyLjggMC00NS4zTDIzNy4zIDI1NiAzNDIuNiAxNTAuNnoiIGZpbGw9IiM2NjAwMDAiLz48L3N2Zz4=;movable=1;resizable=1;rotatable=1;deletable=1;editable=1;locked=0;connectable=1;" vertex="1" parent="93">
                    <mxGeometry x="570" y="190.00000000000045" width="18.75" height="25" as="geometry"/>
                </mxCell>
                <mxCell id="95" value="" style="shape=table;startSize=0;container=1;collapsible=0;childLayout=tableLayout;fontSize=13;align=left;spacingLeft=5;spacing=0;" vertex="1" parent="93">
                    <mxGeometry x="30" y="80" width="575" height="90" as="geometry"/>
                </mxCell>
                <mxCell id="96" value="" style="shape=tableRow;horizontal=0;startSize=0;swimlaneHead=0;swimlaneBody=0;strokeColor=inherit;top=0;left=0;bottom=0;right=0;collapsible=0;dropTarget=0;fillColor=none;points=[[0,0.5],[1,0.5]];portConstraint=eastwest;fontSize=13;align=left;spacingLeft=5;spacing=0;" vertex="1" parent="95">
                    <mxGeometry width="575" height="30" as="geometry"/>
                </mxCell>
                <mxCell id="97" style="shape=partialRectangle;html=1;whiteSpace=wrap;connectable=0;strokeColor=inherit;overflow=hidden;fillColor=#660000;top=0;left=0;bottom=0;right=0;pointerEvents=1;fontSize=13;align=left;spacingLeft=25;spacing=0;fontColor=#FFFFFF;fontStyle=1" vertex="1" parent="96">
                    <mxGeometry width="25" height="30" as="geometry">
                        <mxRectangle width="25" height="30" as="alternateBounds"/>
                    </mxGeometry>
                </mxCell>
                <mxCell id="98" value="Key" style="shape=partialRectangle;html=1;whiteSpace=wrap;connectable=0;strokeColor=inherit;overflow=hidden;fillColor=#660000;top=0;left=0;bottom=0;right=0;pointerEvents=1;fontSize=13;align=left;spacingLeft=25;spacing=0;fontColor=#FFFFFF;fontStyle=1" vertex="1" parent="96">
                    <mxGeometry x="25" width="290" height="30" as="geometry">
                        <mxRectangle width="290" height="30" as="alternateBounds"/>
                    </mxGeometry>
                </mxCell>
                <mxCell id="99" value="Created" style="shape=partialRectangle;html=1;whiteSpace=wrap;connectable=0;strokeColor=inherit;overflow=hidden;fillColor=#660000;top=0;left=0;bottom=0;right=0;pointerEvents=1;fontSize=13;align=left;spacingLeft=5;spacing=0;fontColor=#FFFFFF;fontStyle=1" vertex="1" parent="96">
                    <mxGeometry x="315" width="140" height="30" as="geometry">
                        <mxRectangle width="140" height="30" as="alternateBounds"/>
                    </mxGeometry>
                </mxCell>
                <mxCell id="100" value="Expires" style="shape=partialRectangle;html=1;whiteSpace=wrap;connectable=0;strokeColor=inherit;overflow=hidden;fillColor=#660000;top=0;left=0;bottom=0;right=0;pointerEvents=1;fontSize=13;align=left;spacingLeft=5;spacing=0;fontColor=#FFFFFF;fontStyle=1" vertex="1" parent="96">
                    <mxGeometry x="455" width="120" height="30" as="geometry">
                        <mxRectangle width="120" height="30" as="alternateBounds"/>
                    </mxGeometry>
                </mxCell>
                <mxCell id="101" value="" style="shape=tableRow;horizontal=0;startSize=0;swimlaneHead=0;swimlaneBody=0;strokeColor=inherit;top=0;left=0;bottom=0;right=0;collapsible=0;dropTarget=0;fillColor=none;points=[[0,0.5],[1,0.5]];portConstraint=eastwest;fontSize=13;align=left;spacingLeft=5;spacing=0;" vertex="1" parent="95">
                    <mxGeometry y="30" width="575" height="30" as="geometry"/>
                </mxCell>
                <mxCell id="102" style="shape=partialRectangle;html=1;whiteSpace=wrap;connectable=0;strokeColor=inherit;overflow=hidden;fillColor=none;top=0;left=0;bottom=0;right=0;pointerEvents=1;fontSize=13;align=left;spacingLeft=64;spacing=0;" vertex="1" parent="101">
                    <mxGeometry width="25" height="30" as="geometry">
                        <mxRectangle width="25" height="30" as="alternateBounds"/>
                    </mxGeometry>
                </mxCell>
                <mxCell id="103" value="ExcelReports" style="shape=partialRectangle;html=1;whiteSpace=wrap;connectable=0;strokeColor=inherit;overflow=hidden;fillColor=none;top=0;left=0;bottom=0;right=0;pointerEvents=1;fontSize=13;align=left;spacingLeft=15;spacing=0;" vertex="1" parent="101">
                    <mxGeometry x="25" width="290" height="30" as="geometry">
                        <mxRectangle width="290" height="30" as="alternateBounds"/>
                    </mxGeometry>
                </mxCell>
                <mxCell id="104" value="dd-mm-yy hh:mm" style="shape=partialRectangle;html=1;whiteSpace=wrap;connectable=0;strokeColor=inherit;overflow=hidden;fillColor=none;top=0;left=0;bottom=0;right=0;pointerEvents=1;fontSize=13;align=left;spacingLeft=5;spacing=0;" vertex="1" parent="101">
                    <mxGeometry x="315" width="140" height="30" as="geometry">
                        <mxRectangle width="140" height="30" as="alternateBounds"/>
                    </mxGeometry>
                </mxCell>
                <mxCell id="105" value="" style="shape=partialRectangle;html=1;whiteSpace=wrap;connectable=0;strokeColor=inherit;overflow=hidden;fillColor=none;top=0;left=0;bottom=0;right=0;pointerEvents=1;fontSize=13;align=left;spacingLeft=5;spacing=0;" vertex="1" parent="101">
                    <mxGeometry x="455" width="120" height="30" as="geometry">
                        <mxRectangle width="120" height="30" as="alternateBounds"/>
                    </mxGeometry>
                </mxCell>
                <mxCell id="106" value="" style="shape=tableRow;horizontal=0;startSize=0;swimlaneHead=0;swimlaneBody=0;strokeColor=inherit;top=0;left=0;bottom=0;right=0;collapsible=0;dropTarget=0;fillColor=none;points=[[0,0.5],[1,0.5]];portConstraint=eastwest;fontSize=13;align=left;spacingLeft=5;spacing=0;" vertex="1" parent="95">
                    <mxGeometry y="60" width="575" height="30" as="geometry"/>
                </mxCell>
                <mxCell id="107" style="shape=partialRectangle;html=1;whiteSpace=wrap;connectable=0;strokeColor=inherit;overflow=hidden;fillColor=none;top=0;left=0;bottom=0;right=0;pointerEvents=1;fontSize=13;align=left;spacingLeft=64;spacing=0;" vertex="1" parent="106">
                    <mxGeometry width="25" height="30" as="geometry">
                        <mxRectangle width="25" height="30" as="alternateBounds"/>
                    </mxGeometry>
                </mxCell>
                <mxCell id="108" value="MyAddtiionalKey" style="shape=partialRectangle;html=1;whiteSpace=wrap;connectable=0;strokeColor=inherit;overflow=hidden;fillColor=none;top=0;left=0;bottom=0;right=0;pointerEvents=1;fontSize=13;align=left;spacingLeft=15;spacing=0;" vertex="1" parent="106">
                    <mxGeometry x="25" width="290" height="30" as="geometry">
                        <mxRectangle width="290" height="30" as="alternateBounds"/>
                    </mxGeometry>
                </mxCell>
                <mxCell id="109" value="dd-mm-yy hh:mm" style="shape=partialRectangle;html=1;whiteSpace=wrap;connectable=0;strokeColor=inherit;overflow=hidden;fillColor=none;top=0;left=0;bottom=0;right=0;pointerEvents=1;fontSize=13;align=left;spacingLeft=5;spacing=0;" vertex="1" parent="106">
                    <mxGeometry x="315" width="140" height="30" as="geometry">
                        <mxRectangle width="140" height="30" as="alternateBounds"/>
                    </mxGeometry>
                </mxCell>
                <mxCell id="110" value="dd-mm-yy hh:mm" style="shape=partialRectangle;html=1;whiteSpace=wrap;connectable=0;strokeColor=inherit;overflow=hidden;fillColor=none;top=0;left=0;bottom=0;right=0;pointerEvents=1;fontSize=13;align=left;spacingLeft=5;spacing=0;" vertex="1" parent="106">
                    <mxGeometry x="455" width="120" height="30" as="geometry">
                        <mxRectangle width="120" height="30" as="alternateBounds"/>
                    </mxGeometry>
                </mxCell>
                <mxCell id="111" value="" style="rounded=0;whiteSpace=wrap;html=1;strokeColor=#660000;aspect=fixed;" vertex="1" parent="93">
                    <mxGeometry x="37" y="120.5" width="10" height="10" as="geometry"/>
                </mxCell>
                <mxCell id="112" value="" style="rounded=0;whiteSpace=wrap;html=1;strokeColor=#660000;aspect=fixed;" vertex="1" parent="93">
                    <mxGeometry x="37" y="152" width="10" height="10" as="geometry"/>
                </mxCell>
                <mxCell id="113" value="" style="rounded=0;whiteSpace=wrap;html=1;strokeColor=#660000;aspect=fixed;" vertex="1" parent="93">
                    <mxGeometry x="37" y="54.5" width="10" height="10" as="geometry"/>
                </mxCell>
                <mxCell id="114" value="" style="shape=image;verticalLabelPosition=bottom;labelBackgroundColor=default;verticalAlign=top;aspect=fixed;imageAspect=0;image=data:image/png,iVBORw0KGgoAAAANSUhEUgAAARQAAAByCAYAAACSqi6KAAAAAXNSR0IArs4c6QAAAARnQU1BAACxjwv8YQUAAAAJcEhZcwAAITcAACE3ATNYn3oAAAASdEVYdFNvZnR3YXJlAEdyZWVuc2hvdF5VCAUAAAfXSURBVHhe7d1raNZlGMdxe9M5KMgyLag0qNQoCspT+abRgcCK3nRCGiksTQWTDkshLYupi0nURDdZZhJtJp0mjrk07bA5PFQmQycTrGbq1LQXHf4997rEZtfW82zXvZ7/fX8/8Hsje9xz3/9rP7fb5/lvQAIARigUAGYoFABmKBQAZigUAGYoFABmKBQAZigUAGYoFABmKBQAZigUwNiJI0eSnevXm2bf9u3yt+c3CgUwsnrOnKSkoCCZeMYAL5l51ZXJssLCpH33bvmM+YdCAQy4MtFKwEdeHjc2OdHRIZ85v6S+UI4fOtT5LeGvx47JnwD9qz/L5GQWP/igfPb8ktpC2VhZmRTfMLLLJs8bMzpZX14uHwH0j5lXX9VlDvsrTdXV8gzyRyoLpez++9UNPpmFd98tHwn4tfXDD9UZ7I/MGztGnkX+SF2hLJ88Wd3c09NUUyOPALr6YdeupGzChGTWNcPU2Ykp0y4blLx0263J2tJS2Z2+SVWhfFtXp26KllnDhia/Hj0qjwT+1rxmTVJ00YXqzMQedxbUV6kqlM0rVqgb0V3cYS3wT6+OH6/OCvk7LZs3y071TqoK5aP589VN6C6fLlggjwSS5Mt331XnhJzK3FG3yW71TqoKJdf/nrP4Fg7hqCoqUueEdM3R9nbZsdxRKIjG4gceUOeEdE3btm2yY7mjUBCNusWL1TkhpzL98iGyW71DoSAarY2N6pyQU3E/FvYFhYKoLJ04UZ0VMiCZeslA2aXeo1AQna9WrUqeGXq1OjOxZuWMGbI7fUOhIEruniU7ams7ZyTmfLFyZecrh61QKADMUCgAzFAoAMxQKADMUCiI2j9vBB1jrFEoiJp7A6k2OzFkwV13yS7YoVAQtY0VFersxJC3Hn5YdsEOhYKobVm9Wp2dGPL2U0/JLtihUBC17xsa1NmJIdXFxbILdigURM29VV+bnRhSu3Ch7IIdCgVRO9jWps5ODNlQUSG7YIdCQdTcjcy12Ykh7vzIGoWC6GmzE0N2NjTIDtihUBC9wrPOVOcn9Ozbvl12wA6Fgug9PehSdX5Cjzs/skahIHrPXXetOj+hx90TxhqFgujNHT1KnZ/Q4wOFgugtuucedX5Cjjs38oFCQfTeeuQRdX5Cjjs38qFPhdKxf7/6lmhf6U2haH+Prxw/fFh2BmmyYupUdX5CzrPXXSurt9WrQql/883khRHD1Scae2bfdGPn72BGetTMnq1ey5Azb8xoWb2tnAuFIskuJXfeKTuGfLe2tFS9hiGn9N57ZfW2ciqU1++7T31yRE9TTY3sHPLZ58uXq9cv5JQ/+qis3lbWhbJj7Vr1iZHuM2vY0M73iiC/Na9Zo16/kOPOjXzIulA+KSlRnxjpOe6wFvnNvadFu3Yhx50b+ZB1oZRNmKA+MdJz3D1Lkd/atm5Vr13IcedGPmRdKO63smtPjPScTVVVsoPIVz/v3ateu5Djzo18yLpQGpYsUZ8Y6TnujmDIbyc6OtRrF3KaP/hAVm8r60JpbWpSnxjpPiUFBbJ7yHfa9Qs57l66PmRdKE6MryjsS/juJD2ePOds9RqGGndu5ENOheLk+vL3WPPxa6/JjiENpg2+TL2OoeZAa6us3FbOheK0bNqULCss5FWzp8W9Dd4dXu+orZWdQlo8P/x69ZqGGl/vO+tVofxfeLcxfJk3dow6Q6HGFwoFyIjpbSVPnnuOrNoehQJkLHn8cXWGQsz0IYNl1fYoFCDjnWnT1BkKMc+PGC6rtkehABm5zlaa8/K4sbJqexQKkBHTPVHceZEvFAqQsbGyUp2hEOPOi3yhUIAMdzMsbYZCjDsv8oVCATK+q69XZyjE+LoXikOhABl7m5vVGQoxtYsWyartUShARvuePeoMhZgNFRWyansUCpBx/NAhdYZCjM+bp1MoQMaff/yhzlCI2VlfL6u2R6EAYtJ556pzFFr2btkiK7ZHoQBixhWXq3MUWtp375YV26NQAFF8w0h1jkLLLwcPyortUSiAmH/H7eochRZ3XuQLhQKIGO6JMun882S1flAogFjy2GPqHIUUd07kE4UCiBh+q4M7J/KJQgFEzYsvqnMUUl65fZys1g8KBRDu91BrcxRSfN4LxaFQAPHZ0qXqHIUUd07kE4UCiMb331fnKKS8PWWKrNYPCgUQ39bVqXMUUqqLi2W1flAogGhtalLnKKS4cyKfKBRA/NjSos5RSHHnRD6lqlByvTP5+vJyeSTw344eOKDOUUhx50Q+papQvn7vPXWTuov7FhbI1u+//abOUUj5Zt06Wa0fqSoUd9/PyRecr27U6SkpKJBHAdmbO3qUOk+h5MSRI7JSP1JVKI77MUbbqNPTtm2bPALIXq7ndGlKf/wjm7pCcTZVVakbdjLrysrkI4Hc7KitVWcqhPTHf1KkslAcdz5SOWlSMueWmzs369Xx45NVM2cmP7W0yEcAvbPsiSf+9cWY9kwfMlhW51dqCwXwacrAi9UvzLSmqbpaVuYXhQJ0I4TzlBdGDE/2NDbKivyjUIAe7NqwIakqKur8kXrqJQPVL9p8iyuRNx566H95YSeFAsAMhQLADIUCwAyFAsAMhQLADIUCwAyFAsAMhQLADIUCwAyFAsAMhQLADIUCwAyFAsAMhQLADIUCwAyFAsAMhQLADIUCwAyFAsBIkvwFaON+qIGSICQAAAAASUVORK5CYII=;" vertex="1" parent="93">
                    <mxGeometry x="57" y="50" width="46" height="19" as="geometry"/>
                </mxCell>
                <mxCell id="115" value="Create API Key" style="swimlane;whiteSpace=wrap;html=1;shadow=0;dashed=0;strokeWidth=1;align=center;verticalAlign=top;fontFamily=Helvetica;fontSize=12;fontColor=#FFFFFF;fillColor=#660000;movable=1;resizable=1;rotatable=1;deletable=1;editable=1;locked=0;connectable=1;strokeColor=#666666;swimlaneFillColor=#FFFFFF;startSize=23;" vertex="1" parent="1">
                    <mxGeometry x="1740" y="4290" width="270" height="210" as="geometry"/>
                </mxCell>
                <mxCell id="116" value="" style="shape=image;verticalLabelPosition=bottom;labelBackgroundColor=default;verticalAlign=top;aspect=fixed;imageAspect=0;image=data:image/svg+xml,PHN2ZyB4bWxucz0iaHR0cDovL3d3dy53My5vcmcvMjAwMC9zdmciIHZpZXdCb3g9IjAgMCAzODQgNTEyIj48cGF0aCBkPSJNMzQyLjYgMTUwLjZjMTIuNS0xMi41IDEyLjUtMzIuOCAwLTQ1LjNzLTMyLjgtMTIuNS00NS4zIDBMMTkyIDIxMC43IDg2LjYgMTA1LjRjLTEyLjUtMTIuNS0zMi44LTEyLjUtNDUuMyAwcy0xMi41IDMyLjggMCA0NS4zTDE0Ni43IDI1NiA0MS40IDM2MS40Yy0xMi41IDEyLjUtMTIuNSAzMi44IDAgNDUuM3MzMi44IDEyLjUgNDUuMyAwTDE5MiAzMDEuMyAyOTcuNCA0MDYuNmMxMi41IDEyLjUgMzIuOCAxMi41IDQ1LjMgMHMxMi41LTMyLjggMC00NS4zTDIzNy4zIDI1NiAzNDIuNiAxNTAuNnoiIGZpbGw9IiM2NjAwMDAiLz48L3N2Zz4=;movable=1;resizable=1;rotatable=1;deletable=1;editable=1;locked=0;connectable=1;" vertex="1" parent="115">
                    <mxGeometry x="200" y="180.00000000000045" width="18.75" height="25" as="geometry"/>
                </mxCell>
                <mxCell id="137" value="AnotherKey" style="rounded=1;whiteSpace=wrap;html=1;strokeColor=#333333;fontColor=#808080;fontSize=9;align=left;spacingLeft=15;" vertex="1" parent="115">
                    <mxGeometry x="70" y="40" width="141" height="17" as="geometry"/>
                </mxCell>
                <mxCell id="140" value="Expires" style="rounded=0;whiteSpace=wrap;html=1;shadow=0;dashed=0;strokeWidth=1;align=right;verticalAlign=top;fontFamily=Helvetica;fontSize=8;fontColor=#4D4D4D;fillColor=none;spacingLeft=5;strokeColor=none;" vertex="1" parent="115">
                    <mxGeometry x="20" y="60" width="41.49" height="17" as="geometry"/>
                </mxCell>
                <mxCell id="139" value="Timestamp" style="rounded=1;whiteSpace=wrap;html=1;strokeColor=#333333;fontColor=#808080;fontSize=9;align=left;spacingLeft=15;" vertex="1" parent="115">
                    <mxGeometry x="70" y="60" width="141" height="17" as="geometry"/>
                </mxCell>
                <mxCell id="194" value="" style="strokeWidth=1;shadow=0;dashed=0;align=center;html=1;shape=mxgraph.mockup.forms.rrect;rSize=5;strokeColor=#999999;fillColor=#ffffff;fillStyle=cross-hatch;fontSize=5;" vertex="1" parent="115">
                    <mxGeometry x="148.75" y="80" width="100" height="80" as="geometry"/>
                </mxCell>
                <mxCell id="195" value="October 2014" style="strokeWidth=1;shadow=0;dashed=0;align=center;html=1;shape=mxgraph.mockup.forms.anchor;fontColor=#999999;fillStyle=cross-hatch;fontSize=5;fillColor=#4D4D4D;" vertex="1" parent="194">
                    <mxGeometry x="18.75" y="3.657142857142857" width="62.5" height="9.142857142857142" as="geometry"/>
                </mxCell>
                <mxCell id="196" value="&lt;" style="strokeWidth=1;shadow=0;dashed=0;align=center;html=1;shape=mxgraph.mockup.forms.rrect;rSize=4;strokeColor=#999999;fontColor=#008cff;fontSize=19;fontStyle=1;fillStyle=cross-hatch;fillColor=#4D4D4D;" vertex="1" parent="194">
                    <mxGeometry x="5" y="3.657142857142857" width="15.625" height="9.142857142857142" as="geometry"/>
                </mxCell>
                <mxCell id="197" value="&gt;" style="strokeWidth=1;shadow=0;dashed=0;align=center;html=1;shape=mxgraph.mockup.forms.rrect;rSize=4;strokeColor=#999999;fontColor=#008cff;fontSize=19;fontStyle=1;fillStyle=cross-hatch;fillColor=#4D4D4D;" vertex="1" parent="194">
                    <mxGeometry x="79.375" y="3.657142857142857" width="15.625" height="9.142857142857142" as="geometry"/>
                </mxCell>
                <mxCell id="198" value="Mo" style="strokeWidth=1;shadow=0;dashed=0;align=center;html=1;shape=mxgraph.mockup.forms.anchor;fontColor=#999999;fillStyle=cross-hatch;fontSize=5;fillColor=#4D4D4D;" vertex="1" parent="194">
                    <mxGeometry x="6.25" y="12.799999999999999" width="12.5" height="9.142857142857142" as="geometry"/>
                </mxCell>
                <mxCell id="199" value="Tu" style="strokeWidth=1;shadow=0;dashed=0;align=center;html=1;shape=mxgraph.mockup.forms.anchor;fontColor=#999999;fillStyle=cross-hatch;fontSize=5;fillColor=#4D4D4D;" vertex="1" parent="194">
                    <mxGeometry x="18.75" y="12.799999999999999" width="12.5" height="9.142857142857142" as="geometry"/>
                </mxCell>
                <mxCell id="200" value="We" style="strokeWidth=1;shadow=0;dashed=0;align=center;html=1;shape=mxgraph.mockup.forms.anchor;fontColor=#999999;fillStyle=cross-hatch;fontSize=5;fillColor=#4D4D4D;" vertex="1" parent="194">
                    <mxGeometry x="31.25" y="12.799999999999999" width="12.5" height="9.142857142857142" as="geometry"/>
                </mxCell>
                <mxCell id="201" value="Th" style="strokeWidth=1;shadow=0;dashed=0;align=center;html=1;shape=mxgraph.mockup.forms.anchor;fontColor=#999999;fillStyle=cross-hatch;fontSize=5;fillColor=#4D4D4D;" vertex="1" parent="194">
                    <mxGeometry x="43.75" y="12.799999999999999" width="12.5" height="9.142857142857142" as="geometry"/>
                </mxCell>
                <mxCell id="202" value="Fr" style="strokeWidth=1;shadow=0;dashed=0;align=center;html=1;shape=mxgraph.mockup.forms.anchor;fontColor=#999999;fillStyle=cross-hatch;fontSize=5;fillColor=#4D4D4D;" vertex="1" parent="194">
                    <mxGeometry x="56.25" y="12.799999999999999" width="12.5" height="9.142857142857142" as="geometry"/>
                </mxCell>
                <mxCell id="203" value="Sa" style="strokeWidth=1;shadow=0;dashed=0;align=center;html=1;shape=mxgraph.mockup.forms.anchor;fontColor=#999999;fillStyle=cross-hatch;fontSize=5;fillColor=#4D4D4D;" vertex="1" parent="194">
                    <mxGeometry x="68.75" y="12.799999999999999" width="12.5" height="9.142857142857142" as="geometry"/>
                </mxCell>
                <mxCell id="204" value="Su" style="strokeWidth=1;shadow=0;dashed=0;align=center;html=1;shape=mxgraph.mockup.forms.anchor;fontColor=#999999;fillStyle=cross-hatch;fontSize=5;fillColor=#4D4D4D;" vertex="1" parent="194">
                    <mxGeometry x="81.25" y="12.799999999999999" width="12.5" height="9.142857142857142" as="geometry"/>
                </mxCell>
                <mxCell id="205" value="1" style="strokeWidth=1;shadow=0;dashed=0;align=center;html=1;shape=mxgraph.mockup.forms.rrect;rSize=0;strokeColor=#999999;fontColor=#999999;fillStyle=cross-hatch;fontSize=5;fillColor=#4D4D4D;" vertex="1" parent="194">
                    <mxGeometry x="6.25" y="21.942857142857143" width="12.5" height="9.142857142857142" as="geometry"/>
                </mxCell>
                <mxCell id="206" value="2" style="strokeWidth=1;shadow=0;dashed=0;align=center;html=1;shape=mxgraph.mockup.forms.rrect;rSize=0;strokeColor=#999999;fontColor=#999999;fillStyle=cross-hatch;fontSize=5;fillColor=#4D4D4D;" vertex="1" parent="194">
                    <mxGeometry x="18.75" y="21.942857142857143" width="12.5" height="9.142857142857142" as="geometry"/>
                </mxCell>
                <mxCell id="207" value="3" style="strokeWidth=1;shadow=0;dashed=0;align=center;html=1;shape=mxgraph.mockup.forms.rrect;rSize=0;strokeColor=#999999;fontColor=#999999;fillStyle=cross-hatch;fontSize=5;fillColor=#4D4D4D;" vertex="1" parent="194">
                    <mxGeometry x="31.25" y="21.942857142857143" width="12.5" height="9.142857142857142" as="geometry"/>
                </mxCell>
                <mxCell id="208" value="4" style="strokeWidth=1;shadow=0;dashed=0;align=center;html=1;shape=mxgraph.mockup.forms.rrect;rSize=0;strokeColor=#999999;fontColor=#999999;fillStyle=cross-hatch;fontSize=5;fillColor=#4D4D4D;" vertex="1" parent="194">
                    <mxGeometry x="43.75" y="21.942857142857143" width="12.5" height="9.142857142857142" as="geometry"/>
                </mxCell>
                <mxCell id="209" value="5" style="strokeWidth=1;shadow=0;dashed=0;align=center;html=1;shape=mxgraph.mockup.forms.rrect;rSize=0;strokeColor=#999999;fontColor=#999999;fillStyle=cross-hatch;fontSize=5;fillColor=#4D4D4D;" vertex="1" parent="194">
                    <mxGeometry x="56.25" y="21.942857142857143" width="12.5" height="9.142857142857142" as="geometry"/>
                </mxCell>
                <mxCell id="210" value="6" style="strokeWidth=1;shadow=0;dashed=0;align=center;html=1;shape=mxgraph.mockup.forms.rrect;rSize=0;strokeColor=#999999;fontColor=#999999;fillStyle=cross-hatch;fontSize=5;fillColor=#4D4D4D;" vertex="1" parent="194">
                    <mxGeometry x="68.75" y="21.942857142857143" width="12.5" height="9.142857142857142" as="geometry"/>
                </mxCell>
                <mxCell id="211" value="7" style="strokeWidth=1;shadow=0;dashed=0;align=center;html=1;shape=mxgraph.mockup.forms.rrect;rSize=0;strokeColor=#999999;fontColor=#999999;fillStyle=cross-hatch;fontSize=5;fillColor=#4D4D4D;" vertex="1" parent="194">
                    <mxGeometry x="81.25" y="21.942857142857143" width="12.5" height="9.142857142857142" as="geometry"/>
                </mxCell>
                <mxCell id="212" value="8" style="strokeWidth=1;shadow=0;dashed=0;align=center;html=1;shape=mxgraph.mockup.forms.rrect;rSize=0;strokeColor=#999999;fontColor=#999999;fillStyle=cross-hatch;fontSize=5;fillColor=#4D4D4D;" vertex="1" parent="194">
                    <mxGeometry x="6.25" y="31.085714285714285" width="12.5" height="9.142857142857142" as="geometry"/>
                </mxCell>
                <mxCell id="213" value="9" style="strokeWidth=1;shadow=0;dashed=0;align=center;html=1;shape=mxgraph.mockup.forms.rrect;rSize=0;strokeColor=#999999;fontColor=#999999;fillStyle=cross-hatch;fontSize=5;fillColor=#4D4D4D;" vertex="1" parent="194">
                    <mxGeometry x="18.75" y="31.085714285714285" width="12.5" height="9.142857142857142" as="geometry"/>
                </mxCell>
                <mxCell id="214" value="10" style="strokeWidth=1;shadow=0;dashed=0;align=center;html=1;shape=mxgraph.mockup.forms.rrect;rSize=0;strokeColor=#999999;fontColor=#999999;fillStyle=cross-hatch;fontSize=5;fillColor=#4D4D4D;" vertex="1" parent="194">
                    <mxGeometry x="31.25" y="31.085714285714285" width="12.5" height="9.142857142857142" as="geometry"/>
                </mxCell>
                <mxCell id="215" value="11" style="strokeWidth=1;shadow=0;dashed=0;align=center;html=1;shape=mxgraph.mockup.forms.rrect;rSize=0;strokeColor=#999999;fontColor=#999999;fillStyle=cross-hatch;fontSize=5;fillColor=#4D4D4D;" vertex="1" parent="194">
                    <mxGeometry x="43.75" y="31.085714285714285" width="12.5" height="9.142857142857142" as="geometry"/>
                </mxCell>
                <mxCell id="216" value="12" style="strokeWidth=1;shadow=0;dashed=0;align=center;html=1;shape=mxgraph.mockup.forms.rrect;rSize=0;strokeColor=#999999;fontColor=#999999;fillStyle=cross-hatch;fontSize=5;fillColor=#4D4D4D;" vertex="1" parent="194">
                    <mxGeometry x="56.25" y="31.085714285714285" width="12.5" height="9.142857142857142" as="geometry"/>
                </mxCell>
                <mxCell id="217" value="13" style="strokeWidth=1;shadow=0;dashed=0;align=center;html=1;shape=mxgraph.mockup.forms.rrect;rSize=0;strokeColor=#999999;fontColor=#999999;fillStyle=cross-hatch;fontSize=5;fillColor=#4D4D4D;" vertex="1" parent="194">
                    <mxGeometry x="68.75" y="31.085714285714285" width="12.5" height="9.142857142857142" as="geometry"/>
                </mxCell>
                <mxCell id="218" value="14" style="strokeWidth=1;shadow=0;dashed=0;align=center;html=1;shape=mxgraph.mockup.forms.rrect;rSize=0;strokeColor=#999999;fontColor=#999999;fillStyle=cross-hatch;fontSize=5;fillColor=#4D4D4D;" vertex="1" parent="194">
                    <mxGeometry x="81.25" y="31.085714285714285" width="12.5" height="9.142857142857142" as="geometry"/>
                </mxCell>
                <mxCell id="219" value="15" style="strokeWidth=1;shadow=0;dashed=0;align=center;html=1;shape=mxgraph.mockup.forms.rrect;rSize=0;strokeColor=#999999;fontColor=#999999;fillStyle=cross-hatch;fontSize=5;fillColor=#4D4D4D;" vertex="1" parent="194">
                    <mxGeometry x="6.25" y="40.22857142857143" width="12.5" height="9.142857142857142" as="geometry"/>
                </mxCell>
                <mxCell id="220" value="16" style="strokeWidth=1;shadow=0;dashed=0;align=center;html=1;shape=mxgraph.mockup.forms.rrect;rSize=0;strokeColor=#999999;fontColor=#999999;fillStyle=cross-hatch;fontSize=5;fillColor=#4D4D4D;" vertex="1" parent="194">
                    <mxGeometry x="18.75" y="40.22857142857143" width="12.5" height="9.142857142857142" as="geometry"/>
                </mxCell>
                <mxCell id="221" value="17" style="strokeWidth=1;shadow=0;dashed=0;align=center;html=1;shape=mxgraph.mockup.forms.rrect;rSize=0;strokeColor=#999999;fontColor=#999999;fillStyle=cross-hatch;fontSize=5;fillColor=#4D4D4D;" vertex="1" parent="194">
                    <mxGeometry x="31.25" y="40.22857142857143" width="12.5" height="9.142857142857142" as="geometry"/>
                </mxCell>
                <mxCell id="222" value="18" style="strokeWidth=1;shadow=0;dashed=0;align=center;html=1;shape=mxgraph.mockup.forms.rrect;rSize=0;strokeColor=#999999;fontColor=#999999;fillStyle=cross-hatch;fontSize=5;fillColor=#4D4D4D;" vertex="1" parent="194">
                    <mxGeometry x="43.75" y="40.22857142857143" width="12.5" height="9.142857142857142" as="geometry"/>
                </mxCell>
                <mxCell id="223" value="19" style="strokeWidth=1;shadow=0;dashed=0;align=center;html=1;shape=mxgraph.mockup.forms.rrect;rSize=0;strokeColor=#999999;fontColor=#999999;fillStyle=cross-hatch;fontSize=5;fillColor=#4D4D4D;" vertex="1" parent="194">
                    <mxGeometry x="56.25" y="40.22857142857143" width="12.5" height="9.142857142857142" as="geometry"/>
                </mxCell>
                <mxCell id="224" value="20" style="strokeWidth=1;shadow=0;dashed=0;align=center;html=1;shape=mxgraph.mockup.forms.rrect;rSize=0;strokeColor=#999999;fontColor=#999999;fillStyle=cross-hatch;fontSize=5;fillColor=#4D4D4D;" vertex="1" parent="194">
                    <mxGeometry x="68.75" y="40.22857142857143" width="12.5" height="9.142857142857142" as="geometry"/>
                </mxCell>
                <mxCell id="225" value="21" style="strokeWidth=1;shadow=0;dashed=0;align=center;html=1;shape=mxgraph.mockup.forms.rrect;rSize=0;strokeColor=#999999;fontColor=#999999;fillStyle=cross-hatch;fontSize=5;fillColor=#4D4D4D;" vertex="1" parent="194">
                    <mxGeometry x="81.25" y="40.22857142857143" width="12.5" height="9.142857142857142" as="geometry"/>
                </mxCell>
                <mxCell id="226" value="22" style="strokeWidth=1;shadow=0;dashed=0;align=center;html=1;shape=mxgraph.mockup.forms.rrect;rSize=0;strokeColor=#999999;fontColor=#999999;fillStyle=cross-hatch;fontSize=5;fillColor=#4D4D4D;" vertex="1" parent="194">
                    <mxGeometry x="6.25" y="49.37142857142857" width="12.5" height="9.142857142857142" as="geometry"/>
                </mxCell>
                <mxCell id="227" value="23" style="strokeWidth=1;shadow=0;dashed=0;align=center;html=1;shape=mxgraph.mockup.forms.rrect;rSize=0;strokeColor=#999999;fontColor=#999999;fillStyle=cross-hatch;fontSize=5;fillColor=#4D4D4D;" vertex="1" parent="194">
                    <mxGeometry x="18.75" y="49.37142857142857" width="12.5" height="9.142857142857142" as="geometry"/>
                </mxCell>
                <mxCell id="228" value="25" style="strokeWidth=1;shadow=0;dashed=0;align=center;html=1;shape=mxgraph.mockup.forms.rrect;rSize=0;strokeColor=#999999;fontColor=#999999;fillStyle=cross-hatch;fontSize=5;fillColor=#4D4D4D;" vertex="1" parent="194">
                    <mxGeometry x="43.75" y="49.37142857142857" width="12.5" height="9.142857142857142" as="geometry"/>
                </mxCell>
                <mxCell id="229" value="26" style="strokeWidth=1;shadow=0;dashed=0;align=center;html=1;shape=mxgraph.mockup.forms.rrect;rSize=0;strokeColor=#999999;fontColor=#999999;fillStyle=cross-hatch;fontSize=5;fillColor=#4D4D4D;" vertex="1" parent="194">
                    <mxGeometry x="56.25" y="49.37142857142857" width="12.5" height="9.142857142857142" as="geometry"/>
                </mxCell>
                <mxCell id="230" value="27" style="strokeWidth=1;shadow=0;dashed=0;align=center;html=1;shape=mxgraph.mockup.forms.rrect;rSize=0;strokeColor=#999999;fontColor=#999999;fillStyle=cross-hatch;fontSize=5;fillColor=#4D4D4D;" vertex="1" parent="194">
                    <mxGeometry x="68.75" y="49.37142857142857" width="12.5" height="9.142857142857142" as="geometry"/>
                </mxCell>
                <mxCell id="231" value="28" style="strokeWidth=1;shadow=0;dashed=0;align=center;html=1;shape=mxgraph.mockup.forms.rrect;rSize=0;strokeColor=#999999;fontColor=#999999;fillStyle=cross-hatch;fontSize=5;fillColor=#4D4D4D;" vertex="1" parent="194">
                    <mxGeometry x="81.25" y="49.37142857142857" width="12.5" height="9.142857142857142" as="geometry"/>
                </mxCell>
                <mxCell id="232" value="29" style="strokeWidth=1;shadow=0;dashed=0;align=center;html=1;shape=mxgraph.mockup.forms.rrect;rSize=0;strokeColor=#999999;fontColor=#999999;fillStyle=cross-hatch;fontSize=5;fillColor=#4D4D4D;" vertex="1" parent="194">
                    <mxGeometry x="6.25" y="58.51428571428571" width="12.5" height="9.142857142857142" as="geometry"/>
                </mxCell>
                <mxCell id="233" value="30" style="strokeWidth=1;shadow=0;dashed=0;align=center;html=1;shape=mxgraph.mockup.forms.rrect;rSize=0;strokeColor=#999999;fontColor=#999999;fillStyle=cross-hatch;fontSize=5;fillColor=#4D4D4D;" vertex="1" parent="194">
                    <mxGeometry x="18.75" y="58.51428571428571" width="12.5" height="9.142857142857142" as="geometry"/>
                </mxCell>
                <mxCell id="234" value="31" style="strokeWidth=1;shadow=0;dashed=0;align=center;html=1;shape=mxgraph.mockup.forms.rrect;rSize=0;strokeColor=#999999;fontColor=#999999;fillStyle=cross-hatch;fontSize=5;fillColor=#4D4D4D;" vertex="1" parent="194">
                    <mxGeometry x="31.25" y="58.51428571428571" width="12.5" height="9.142857142857142" as="geometry"/>
                </mxCell>
                <mxCell id="235" value="1" style="strokeWidth=1;shadow=0;dashed=0;align=center;html=1;shape=mxgraph.mockup.forms.rrect;rSize=0;strokeColor=#999999;fontColor=#999999;fillColor=#ddeeff;fillStyle=cross-hatch;fontSize=5;" vertex="1" parent="194">
                    <mxGeometry x="43.75" y="58.51428571428571" width="12.5" height="9.142857142857142" as="geometry"/>
                </mxCell>
                <mxCell id="236" value="2" style="strokeWidth=1;shadow=0;dashed=0;align=center;html=1;shape=mxgraph.mockup.forms.rrect;rSize=0;strokeColor=#999999;fontColor=#999999;fillColor=#ddeeff;fillStyle=cross-hatch;fontSize=5;" vertex="1" parent="194">
                    <mxGeometry x="56.25" y="58.51428571428571" width="12.5" height="9.142857142857142" as="geometry"/>
                </mxCell>
                <mxCell id="237" value="3" style="strokeWidth=1;shadow=0;dashed=0;align=center;html=1;shape=mxgraph.mockup.forms.rrect;rSize=0;strokeColor=#999999;fontColor=#999999;fillColor=#ddeeff;fillStyle=cross-hatch;fontSize=5;" vertex="1" parent="194">
                    <mxGeometry x="68.75" y="58.51428571428571" width="12.5" height="9.142857142857142" as="geometry"/>
                </mxCell>
                <mxCell id="238" value="4" style="strokeWidth=1;shadow=0;dashed=0;align=center;html=1;shape=mxgraph.mockup.forms.rrect;rSize=0;strokeColor=#999999;fontColor=#999999;fillColor=#ddeeff;fillStyle=cross-hatch;fontSize=5;" vertex="1" parent="194">
                    <mxGeometry x="81.25" y="58.51428571428571" width="12.5" height="9.142857142857142" as="geometry"/>
                </mxCell>
                <mxCell id="239" value="5" style="strokeWidth=1;shadow=0;dashed=0;align=center;html=1;shape=mxgraph.mockup.forms.rrect;rSize=0;strokeColor=#999999;fontColor=#999999;fillColor=#ddeeff;fillStyle=cross-hatch;fontSize=5;" vertex="1" parent="194">
                    <mxGeometry x="6.25" y="67.65714285714286" width="12.5" height="9.142857142857142" as="geometry"/>
                </mxCell>
                <mxCell id="240" value="6" style="strokeWidth=1;shadow=0;dashed=0;align=center;html=1;shape=mxgraph.mockup.forms.rrect;rSize=0;strokeColor=#999999;fontColor=#999999;fillColor=#ddeeff;fillStyle=cross-hatch;fontSize=5;" vertex="1" parent="194">
                    <mxGeometry x="18.75" y="67.65714285714286" width="12.5" height="9.142857142857142" as="geometry"/>
                </mxCell>
                <mxCell id="241" value="7" style="strokeWidth=1;shadow=0;dashed=0;align=center;html=1;shape=mxgraph.mockup.forms.rrect;rSize=0;strokeColor=#999999;fontColor=#999999;fillColor=#ddeeff;fillStyle=cross-hatch;fontSize=5;" vertex="1" parent="194">
                    <mxGeometry x="31.25" y="67.65714285714286" width="12.5" height="9.142857142857142" as="geometry"/>
                </mxCell>
                <mxCell id="242" value="8" style="strokeWidth=1;shadow=0;dashed=0;align=center;html=1;shape=mxgraph.mockup.forms.rrect;rSize=0;strokeColor=#999999;fontColor=#999999;fillColor=#ddeeff;fillStyle=cross-hatch;fontSize=5;" vertex="1" parent="194">
                    <mxGeometry x="43.75" y="67.65714285714286" width="12.5" height="9.142857142857142" as="geometry"/>
                </mxCell>
                <mxCell id="243" value="9" style="strokeWidth=1;shadow=0;dashed=0;align=center;html=1;shape=mxgraph.mockup.forms.rrect;rSize=0;strokeColor=#999999;fontColor=#999999;fillColor=#ddeeff;fillStyle=cross-hatch;fontSize=5;" vertex="1" parent="194">
                    <mxGeometry x="56.25" y="67.65714285714286" width="12.5" height="9.142857142857142" as="geometry"/>
                </mxCell>
                <mxCell id="244" value="10" style="strokeWidth=1;shadow=0;dashed=0;align=center;html=1;shape=mxgraph.mockup.forms.rrect;rSize=0;strokeColor=#999999;fontColor=#999999;fillColor=#ddeeff;fillStyle=cross-hatch;fontSize=5;" vertex="1" parent="194">
                    <mxGeometry x="68.75" y="67.65714285714286" width="12.5" height="9.142857142857142" as="geometry"/>
                </mxCell>
                <mxCell id="245" value="11" style="strokeWidth=1;shadow=0;dashed=0;align=center;html=1;shape=mxgraph.mockup.forms.rrect;rSize=0;strokeColor=#999999;fontColor=#999999;fillColor=#ddeeff;fillStyle=cross-hatch;fontSize=5;" vertex="1" parent="194">
                    <mxGeometry x="81.25" y="67.65714285714286" width="12.5" height="9.142857142857142" as="geometry"/>
                </mxCell>
                <mxCell id="246" value="24" style="strokeWidth=1;shadow=0;dashed=0;align=center;html=1;shape=mxgraph.mockup.forms.rrect;rSize=0;strokeColor=#ff0000;fontColor=#ffffff;strokeWidth=2;fillColor=#008cff;fillStyle=cross-hatch;fontSize=5;" vertex="1" parent="194">
                    <mxGeometry x="31.25" y="49.37142857142857" width="12.5" height="9.142857142857142" as="geometry"/>
                </mxCell>
                <mxCell id="309" value="" style="shape=image;verticalLabelPosition=bottom;labelBackgroundColor=default;verticalAlign=top;aspect=fixed;imageAspect=0;image=data:image/svg+xml,PHN2ZyB4bWxucz0iaHR0cDovL3d3dy53My5vcmcvMjAwMC9zdmciIHZpZXdCb3g9IjAgMCA0NDggNTEyIj48cGF0aCBkPSJNNDM4LjYgMTA1LjRjMTIuNSAxMi41IDEyLjUgMzIuOCAwIDQ1LjNsLTI1NiAyNTZjLTEyLjUgMTIuNS0zMi44IDEyLjUtNDUuMyAwbC0xMjgtMTI4Yy0xMi41LTEyLjUtMTIuNS0zMi44IDAtNDUuM3MzMi44LTEyLjUgNDUuMyAwTDE2MCAzMzguNyAzOTMuNCAxMDUuNGMxMi41LTEyLjUgMzIuOC0xMi41IDQ1LjMgMHoiIGZpbGw9IiM2NjAwMDAiLz48L3N2Zz4=;movable=1;resizable=1;rotatable=1;deletable=1;editable=1;locked=0;connectable=1;" vertex="1" parent="115">
                    <mxGeometry x="230" y="180" width="21.88" height="25" as="geometry"/>
                </mxCell>
                <mxCell id="138" value="Name" style="rounded=0;whiteSpace=wrap;html=1;shadow=0;dashed=0;strokeWidth=1;align=right;verticalAlign=top;fontFamily=Helvetica;fontSize=8;fontColor=#4D4D4D;fillColor=none;spacingLeft=5;strokeColor=none;" vertex="1" parent="1">
                    <mxGeometry x="1760" y="4332" width="41.49" height="17" as="geometry"/>
                </mxCell>
                <mxCell id="247" value="Delete API Key" style="swimlane;whiteSpace=wrap;html=1;shadow=0;dashed=0;strokeWidth=1;align=center;verticalAlign=top;fontFamily=Helvetica;fontSize=12;fontColor=#FFFFFF;fillColor=#660000;movable=1;resizable=1;rotatable=1;deletable=1;editable=1;locked=0;connectable=1;strokeColor=#666666;swimlaneFillColor=#FFFFFF;startSize=23;" vertex="1" parent="1">
                    <mxGeometry x="2110" y="4290" width="270" height="210" as="geometry"/>
                </mxCell>
                <mxCell id="306" value="Any applications leveraging this API Key will cease to work until supplied with a newly generated API key." style="text;html=1;strokeColor=none;fillColor=none;align=left;verticalAlign=middle;whiteSpace=wrap;rounded=0;fillStyle=cross-hatch;fontSize=15;" vertex="1" parent="247">
                    <mxGeometry x="10" y="42" width="240" height="68" as="geometry"/>
                </mxCell>
                <mxCell id="307" value="Type DELETE to proceed" style="rounded=0;whiteSpace=wrap;html=1;fontColor=#808080;strokeColor=#B3B3B3;fontSize=12;align=center;" vertex="1" parent="247">
                    <mxGeometry x="40" y="130" width="210" height="20" as="geometry"/>
                </mxCell>
                <mxCell id="308" value="" style="shape=image;verticalLabelPosition=bottom;labelBackgroundColor=default;verticalAlign=top;aspect=fixed;imageAspect=0;image=data:image/svg+xml,PHN2ZyB4bWxucz0iaHR0cDovL3d3dy53My5vcmcvMjAwMC9zdmciIHZpZXdCb3g9IjAgMCA0NDggNTEyIj48cGF0aCBkPSJNNDM4LjYgMTA1LjRjMTIuNSAxMi41IDEyLjUgMzIuOCAwIDQ1LjNsLTI1NiAyNTZjLTEyLjUgMTIuNS0zMi44IDEyLjUtNDUuMyAwbC0xMjgtMTI4Yy0xMi41LTEyLjUtMTIuNS0zMi44IDAtNDUuM3MzMi44LTEyLjUgNDUuMyAwTDE2MCAzMzguNyAzOTMuNCAxMDUuNGMxMi41LTEyLjUgMzIuOC0xMi41IDQ1LjMgMHoiIGZpbGw9IiM2NjAwMDAiLz48L3N2Zz4=;movable=1;resizable=1;rotatable=1;deletable=1;editable=1;locked=0;connectable=1;" vertex="1" parent="247">
                    <mxGeometry x="230" y="180" width="21.88" height="25" as="geometry"/>
                </mxCell>
            </root>
        </mxGraphModel>
    </diagram>
</mxfile>